<mxfile host="Electron" agent="Mozilla/5.0 (Windows NT 10.0; Win64; x64) AppleWebKit/537.36 (KHTML, like Gecko) draw.io/28.1.2 Chrome/138.0.7204.243 Electron/37.4.0 Safari/537.36" version="28.1.2">
  <diagram id="C5RBs43oDa-KdzZeNtuy" name="Page-1">
    <mxGraphModel dx="2222" dy="1973" grid="1" gridSize="10" guides="1" tooltips="1" connect="1" arrows="1" fold="1" page="1" pageScale="1" pageWidth="827" pageHeight="1169" math="0" shadow="0">
      <root>
        <mxCell id="WIyWlLk6GJQsqaUBKTNV-0" />
        <mxCell id="WIyWlLk6GJQsqaUBKTNV-1" parent="WIyWlLk6GJQsqaUBKTNV-0" />
        <mxCell id="pRz6s-s0hqJRsFS_L3yZ-18" style="edgeStyle=orthogonalEdgeStyle;rounded=0;orthogonalLoop=1;jettySize=auto;html=1;endArrow=none;endFill=0;" edge="1" parent="WIyWlLk6GJQsqaUBKTNV-1" source="yRHTukWS5kPvDP0bp7k_-1" target="yRHTukWS5kPvDP0bp7k_-49">
          <mxGeometry relative="1" as="geometry">
            <Array as="points">
              <mxPoint x="770" y="340" />
            </Array>
          </mxGeometry>
        </mxCell>
        <mxCell id="pRz6s-s0hqJRsFS_L3yZ-38" style="edgeStyle=orthogonalEdgeStyle;rounded=0;orthogonalLoop=1;jettySize=auto;html=1;" edge="1" parent="WIyWlLk6GJQsqaUBKTNV-1" source="yRHTukWS5kPvDP0bp7k_-1" target="pRz6s-s0hqJRsFS_L3yZ-37">
          <mxGeometry relative="1" as="geometry">
            <Array as="points">
              <mxPoint x="490" y="430" />
              <mxPoint x="490" y="430" />
            </Array>
          </mxGeometry>
        </mxCell>
        <mxCell id="yRHTukWS5kPvDP0bp7k_-1" value="CHARACTER" style="swimlane;fontStyle=0;childLayout=stackLayout;horizontal=1;startSize=30;horizontalStack=0;resizeParent=1;resizeParentMax=0;resizeLast=0;collapsible=1;marginBottom=0;whiteSpace=wrap;html=1;fillColor=#60a917;strokeColor=#2D7600;fontColor=#ffffff;" parent="WIyWlLk6GJQsqaUBKTNV-1" vertex="1">
          <mxGeometry x="550" y="320" width="140" height="160" as="geometry" />
        </mxCell>
        <mxCell id="yRHTukWS5kPvDP0bp7k_-2" value="ID&lt;br&gt;Name&lt;br&gt;&lt;div&gt;Race&lt;/div&gt;&lt;div&gt;Gender&lt;/div&gt;&lt;div&gt;Age&lt;/div&gt;&lt;div&gt;Weight&lt;/div&gt;&lt;div&gt;Height&lt;/div&gt;&lt;div&gt;Race&lt;/div&gt;" style="text;strokeColor=none;fillColor=none;align=left;verticalAlign=middle;spacingLeft=4;spacingRight=4;overflow=hidden;points=[[0,0.5],[1,0.5]];portConstraint=eastwest;rotatable=0;whiteSpace=wrap;html=1;" parent="yRHTukWS5kPvDP0bp7k_-1" vertex="1">
          <mxGeometry y="30" width="140" height="130" as="geometry" />
        </mxCell>
        <mxCell id="yRHTukWS5kPvDP0bp7k_-5" value="STAT" style="swimlane;fontStyle=0;childLayout=stackLayout;horizontal=1;startSize=30;horizontalStack=0;resizeParent=1;resizeParentMax=0;resizeLast=0;collapsible=1;marginBottom=0;whiteSpace=wrap;html=1;" parent="WIyWlLk6GJQsqaUBKTNV-1" vertex="1">
          <mxGeometry x="600" y="800" width="140" height="160" as="geometry" />
        </mxCell>
        <mxCell id="yRHTukWS5kPvDP0bp7k_-6" value="Id&lt;br&gt;Name&lt;div&gt;LevelExp&lt;/div&gt;" style="text;strokeColor=none;fillColor=none;align=left;verticalAlign=middle;spacingLeft=4;spacingRight=4;overflow=hidden;points=[[0,0.5],[1,0.5]];portConstraint=eastwest;rotatable=0;whiteSpace=wrap;html=1;" parent="yRHTukWS5kPvDP0bp7k_-5" vertex="1">
          <mxGeometry y="30" width="140" height="130" as="geometry" />
        </mxCell>
        <mxCell id="yRHTukWS5kPvDP0bp7k_-8" value="CHARACTER_STATS" style="swimlane;fontStyle=0;childLayout=stackLayout;horizontal=1;startSize=30;horizontalStack=0;resizeParent=1;resizeParentMax=0;resizeLast=0;collapsible=1;marginBottom=0;whiteSpace=wrap;html=1;fillColor=#e51400;fontColor=#ffffff;strokeColor=#B20000;" parent="WIyWlLk6GJQsqaUBKTNV-1" vertex="1">
          <mxGeometry x="760" y="600" width="140" height="170" as="geometry" />
        </mxCell>
        <mxCell id="yRHTukWS5kPvDP0bp7k_-9" value="CharacterID&lt;br&gt;StadID&lt;div&gt;Experience&lt;/div&gt;&lt;div&gt;Level&lt;/div&gt;&lt;div&gt;Mastery&lt;br&gt;Bonus&lt;br&gt;Penalty&lt;/div&gt;&lt;div&gt;Limit&lt;/div&gt;" style="text;strokeColor=none;fillColor=none;align=left;verticalAlign=middle;spacingLeft=4;spacingRight=4;overflow=hidden;points=[[0,0.5],[1,0.5]];portConstraint=eastwest;rotatable=0;whiteSpace=wrap;html=1;" parent="yRHTukWS5kPvDP0bp7k_-8" vertex="1">
          <mxGeometry y="30" width="140" height="140" as="geometry" />
        </mxCell>
        <mxCell id="yRHTukWS5kPvDP0bp7k_-21" value="ITEM" style="swimlane;fontStyle=0;childLayout=stackLayout;horizontal=1;startSize=30;horizontalStack=0;resizeParent=1;resizeParentMax=0;resizeLast=0;collapsible=1;marginBottom=0;whiteSpace=wrap;html=1;" parent="WIyWlLk6GJQsqaUBKTNV-1" vertex="1">
          <mxGeometry x="310" y="-220" width="140" height="160" as="geometry" />
        </mxCell>
        <mxCell id="yRHTukWS5kPvDP0bp7k_-22" value="&lt;div&gt;Id&lt;/div&gt;&lt;div&gt;Name&lt;/div&gt;&lt;div&gt;Description&lt;/div&gt;&lt;div&gt;Price&lt;/div&gt;" style="text;strokeColor=none;fillColor=none;align=left;verticalAlign=middle;spacingLeft=4;spacingRight=4;overflow=hidden;points=[[0,0.5],[1,0.5]];portConstraint=eastwest;rotatable=0;whiteSpace=wrap;html=1;" parent="yRHTukWS5kPvDP0bp7k_-21" vertex="1">
          <mxGeometry y="30" width="140" height="130" as="geometry" />
        </mxCell>
        <mxCell id="yRHTukWS5kPvDP0bp7k_-24" value="EQUIPMENT" style="swimlane;fontStyle=0;childLayout=stackLayout;horizontal=1;startSize=30;horizontalStack=0;resizeParent=1;resizeParentMax=0;resizeLast=0;collapsible=1;marginBottom=0;whiteSpace=wrap;html=1;fillColor=#e51400;fontColor=#ffffff;strokeColor=#B20000;" parent="WIyWlLk6GJQsqaUBKTNV-1" vertex="1">
          <mxGeometry x="950" y="310" width="140" height="160" as="geometry" />
        </mxCell>
        <mxCell id="yRHTukWS5kPvDP0bp7k_-25" value="&lt;div&gt;equip_id&lt;br&gt;character_id&lt;br&gt;quality&lt;br&gt;upgrades&lt;/div&gt;" style="text;strokeColor=none;fillColor=none;align=left;verticalAlign=middle;spacingLeft=4;spacingRight=4;overflow=hidden;points=[[0,0.5],[1,0.5]];portConstraint=eastwest;rotatable=0;whiteSpace=wrap;html=1;" parent="yRHTukWS5kPvDP0bp7k_-24" vertex="1">
          <mxGeometry y="30" width="140" height="130" as="geometry" />
        </mxCell>
        <mxCell id="yRHTukWS5kPvDP0bp7k_-26" value="INVENTORY" style="swimlane;fontStyle=0;childLayout=stackLayout;horizontal=1;startSize=30;horizontalStack=0;resizeParent=1;resizeParentMax=0;resizeLast=0;collapsible=1;marginBottom=0;whiteSpace=wrap;html=1;fillColor=#e51400;fontColor=#ffffff;strokeColor=#B20000;" parent="WIyWlLk6GJQsqaUBKTNV-1" vertex="1">
          <mxGeometry x="350" y="20" width="140" height="160" as="geometry" />
        </mxCell>
        <mxCell id="yRHTukWS5kPvDP0bp7k_-27" value="&lt;div&gt;CharacterId&lt;/div&gt;&lt;div&gt;ItemId&lt;/div&gt;&lt;div&gt;Quantity&lt;/div&gt;" style="text;strokeColor=none;fillColor=none;align=left;verticalAlign=middle;spacingLeft=4;spacingRight=4;overflow=hidden;points=[[0,0.5],[1,0.5]];portConstraint=eastwest;rotatable=0;whiteSpace=wrap;html=1;" parent="yRHTukWS5kPvDP0bp7k_-26" vertex="1">
          <mxGeometry y="30" width="140" height="130" as="geometry" />
        </mxCell>
        <mxCell id="yRHTukWS5kPvDP0bp7k_-33" value="BODY_PART" style="swimlane;fontStyle=0;childLayout=stackLayout;horizontal=1;startSize=30;horizontalStack=0;resizeParent=1;resizeParentMax=0;resizeLast=0;collapsible=1;marginBottom=0;whiteSpace=wrap;html=1;fillColor=#e51400;fontColor=#ffffff;strokeColor=#B20000;" parent="WIyWlLk6GJQsqaUBKTNV-1" vertex="1">
          <mxGeometry x="570" y="-200" width="140" height="160" as="geometry" />
        </mxCell>
        <mxCell id="yRHTukWS5kPvDP0bp7k_-34" value="&lt;div&gt;CharacterId&lt;/div&gt;&lt;div&gt;PartId&lt;/div&gt;&lt;div&gt;CurrentHealth&lt;br&gt;RepetitionIndex&lt;/div&gt;" style="text;strokeColor=none;fillColor=none;align=left;verticalAlign=middle;spacingLeft=4;spacingRight=4;overflow=hidden;points=[[0,0.5],[1,0.5]];portConstraint=eastwest;rotatable=0;whiteSpace=wrap;html=1;" parent="yRHTukWS5kPvDP0bp7k_-33" vertex="1">
          <mxGeometry y="30" width="140" height="130" as="geometry" />
        </mxCell>
        <mxCell id="yRHTukWS5kPvDP0bp7k_-39" value="EQUIPABLE_OBJECT" style="swimlane;fontStyle=0;childLayout=stackLayout;horizontal=1;startSize=30;horizontalStack=0;resizeParent=1;resizeParentMax=0;resizeLast=0;collapsible=1;marginBottom=0;whiteSpace=wrap;html=1;" parent="WIyWlLk6GJQsqaUBKTNV-1" vertex="1">
          <mxGeometry x="1250" y="310" width="140" height="160" as="geometry" />
        </mxCell>
        <mxCell id="yRHTukWS5kPvDP0bp7k_-40" value="&lt;div&gt;id&lt;br&gt;name&lt;br&gt;strenght&lt;br&gt;power&lt;br&gt;stealth&lt;br&gt;range&lt;br&gt;weight&lt;br&gt;description&lt;br&gt;type&lt;/div&gt;" style="text;strokeColor=none;fillColor=none;align=left;verticalAlign=middle;spacingLeft=4;spacingRight=4;overflow=hidden;points=[[0,0.5],[1,0.5]];portConstraint=eastwest;rotatable=0;whiteSpace=wrap;html=1;" parent="yRHTukWS5kPvDP0bp7k_-39" vertex="1">
          <mxGeometry y="30" width="140" height="130" as="geometry" />
        </mxCell>
        <mxCell id="yRHTukWS5kPvDP0bp7k_-45" value="SYTLE" style="swimlane;fontStyle=0;childLayout=stackLayout;horizontal=1;startSize=30;horizontalStack=0;resizeParent=1;resizeParentMax=0;resizeLast=0;collapsible=1;marginBottom=0;whiteSpace=wrap;html=1;" parent="WIyWlLk6GJQsqaUBKTNV-1" vertex="1">
          <mxGeometry x="-70" y="345" width="140" height="160" as="geometry" />
        </mxCell>
        <mxCell id="yRHTukWS5kPvDP0bp7k_-46" value="ID&lt;br&gt;name&lt;br&gt;description" style="text;strokeColor=none;fillColor=none;align=left;verticalAlign=middle;spacingLeft=4;spacingRight=4;overflow=hidden;points=[[0,0.5],[1,0.5]];portConstraint=eastwest;rotatable=0;whiteSpace=wrap;html=1;" parent="yRHTukWS5kPvDP0bp7k_-45" vertex="1">
          <mxGeometry y="30" width="140" height="130" as="geometry" />
        </mxCell>
        <mxCell id="yRHTukWS5kPvDP0bp7k_-47" value="CLASS" style="swimlane;fontStyle=0;childLayout=stackLayout;horizontal=1;startSize=30;horizontalStack=0;resizeParent=1;resizeParentMax=0;resizeLast=0;collapsible=1;marginBottom=0;whiteSpace=wrap;html=1;" parent="WIyWlLk6GJQsqaUBKTNV-1" vertex="1">
          <mxGeometry x="-80" y="20" width="140" height="160" as="geometry" />
        </mxCell>
        <mxCell id="yRHTukWS5kPvDP0bp7k_-48" value="&lt;div&gt;id&lt;br&gt;name&lt;br&gt;description&lt;/div&gt;&lt;div&gt;&lt;br&gt;&lt;/div&gt;" style="text;strokeColor=none;fillColor=none;align=left;verticalAlign=middle;spacingLeft=4;spacingRight=4;overflow=hidden;points=[[0,0.5],[1,0.5]];portConstraint=eastwest;rotatable=0;whiteSpace=wrap;html=1;" parent="yRHTukWS5kPvDP0bp7k_-47" vertex="1">
          <mxGeometry y="30" width="140" height="130" as="geometry" />
        </mxCell>
        <mxCell id="yRHTukWS5kPvDP0bp7k_-49" value="CHARACTER_RANK" style="swimlane;fontStyle=0;childLayout=stackLayout;horizontal=1;startSize=30;horizontalStack=0;resizeParent=1;resizeParentMax=0;resizeLast=0;collapsible=1;marginBottom=0;whiteSpace=wrap;html=1;" parent="WIyWlLk6GJQsqaUBKTNV-1" vertex="1">
          <mxGeometry x="700" y="20" width="140" height="160" as="geometry" />
        </mxCell>
        <mxCell id="yRHTukWS5kPvDP0bp7k_-50" value="&lt;div&gt;id&lt;br&gt;level&lt;br&gt;points_required&lt;br&gt;description&lt;/div&gt;" style="text;strokeColor=none;fillColor=none;align=left;verticalAlign=middle;spacingLeft=4;spacingRight=4;overflow=hidden;points=[[0,0.5],[1,0.5]];portConstraint=eastwest;rotatable=0;whiteSpace=wrap;html=1;" parent="yRHTukWS5kPvDP0bp7k_-49" vertex="1">
          <mxGeometry y="30" width="140" height="130" as="geometry" />
        </mxCell>
        <mxCell id="yRHTukWS5kPvDP0bp7k_-53" value="SKILL" style="swimlane;fontStyle=0;childLayout=stackLayout;horizontal=1;startSize=30;horizontalStack=0;resizeParent=1;resizeParentMax=0;resizeLast=0;collapsible=1;marginBottom=0;whiteSpace=wrap;html=1;" parent="WIyWlLk6GJQsqaUBKTNV-1" vertex="1">
          <mxGeometry x="130" y="555" width="160" height="190" as="geometry" />
        </mxCell>
        <mxCell id="yRHTukWS5kPvDP0bp7k_-54" value="&lt;div&gt;id&lt;br&gt;name&lt;br&gt;description&lt;br&gt;required_exp&lt;br&gt;physical_cost&lt;br&gt;mental_cost&lt;br&gt;is_upgradable&lt;br&gt;upgrade_level&lt;br&gt;upgrade_point&lt;/div&gt;" style="text;strokeColor=none;fillColor=none;align=left;verticalAlign=middle;spacingLeft=4;spacingRight=4;overflow=hidden;points=[[0,0.5],[1,0.5]];portConstraint=eastwest;rotatable=0;whiteSpace=wrap;html=1;" parent="yRHTukWS5kPvDP0bp7k_-53" vertex="1">
          <mxGeometry y="30" width="160" height="160" as="geometry" />
        </mxCell>
        <mxCell id="bwXpTgGX0ksgG3eH8Lzq-3" value="PARTS" style="swimlane;fontStyle=0;childLayout=stackLayout;horizontal=1;startSize=30;horizontalStack=0;resizeParent=1;resizeParentMax=0;resizeLast=0;collapsible=1;marginBottom=0;whiteSpace=wrap;html=1;" parent="WIyWlLk6GJQsqaUBKTNV-1" vertex="1">
          <mxGeometry x="790" y="-200" width="140" height="160" as="geometry" />
        </mxCell>
        <mxCell id="bwXpTgGX0ksgG3eH8Lzq-4" value="Id&lt;br&gt;Name&lt;br&gt;MaxHealth" style="text;strokeColor=none;fillColor=none;align=left;verticalAlign=middle;spacingLeft=4;spacingRight=4;overflow=hidden;points=[[0,0.5],[1,0.5]];portConstraint=eastwest;rotatable=0;whiteSpace=wrap;html=1;" parent="bwXpTgGX0ksgG3eH8Lzq-3" vertex="1">
          <mxGeometry y="30" width="140" height="130" as="geometry" />
        </mxCell>
        <mxCell id="CEfp5S79hrcH4w41YSzi-4" style="edgeStyle=orthogonalEdgeStyle;rounded=0;orthogonalLoop=1;jettySize=auto;html=1;" parent="WIyWlLk6GJQsqaUBKTNV-1" source="yRHTukWS5kPvDP0bp7k_-40" target="yRHTukWS5kPvDP0bp7k_-25" edge="1">
          <mxGeometry relative="1" as="geometry" />
        </mxCell>
        <mxCell id="CEfp5S79hrcH4w41YSzi-6" style="edgeStyle=orthogonalEdgeStyle;rounded=0;orthogonalLoop=1;jettySize=auto;html=1;" parent="WIyWlLk6GJQsqaUBKTNV-1" source="yRHTukWS5kPvDP0bp7k_-27" target="yRHTukWS5kPvDP0bp7k_-2" edge="1">
          <mxGeometry relative="1" as="geometry" />
        </mxCell>
        <mxCell id="CEfp5S79hrcH4w41YSzi-11" value="EXTRA_STAT" style="swimlane;fontStyle=0;childLayout=stackLayout;horizontal=1;startSize=30;horizontalStack=0;resizeParent=1;resizeParentMax=0;resizeLast=0;collapsible=1;marginBottom=0;whiteSpace=wrap;html=1;fillColor=#e51400;fontColor=#ffffff;strokeColor=#B20000;" parent="WIyWlLk6GJQsqaUBKTNV-1" vertex="1">
          <mxGeometry x="970" y="790" width="140" height="160" as="geometry" />
        </mxCell>
        <mxCell id="CEfp5S79hrcH4w41YSzi-12" value="&lt;div&gt;EquipmentId&lt;/div&gt;&lt;div&gt;StatId&lt;/div&gt;&lt;div&gt;StatModifier&lt;/div&gt;" style="text;strokeColor=none;fillColor=none;align=left;verticalAlign=middle;spacingLeft=4;spacingRight=4;overflow=hidden;points=[[0,0.5],[1,0.5]];portConstraint=eastwest;rotatable=0;whiteSpace=wrap;html=1;" parent="CEfp5S79hrcH4w41YSzi-11" vertex="1">
          <mxGeometry y="30" width="140" height="130" as="geometry" />
        </mxCell>
        <mxCell id="pRz6s-s0hqJRsFS_L3yZ-0" value="PATH" style="swimlane;fontStyle=0;childLayout=stackLayout;horizontal=1;startSize=30;horizontalStack=0;resizeParent=1;resizeParentMax=0;resizeLast=0;collapsible=1;marginBottom=0;whiteSpace=wrap;html=1;" vertex="1" parent="WIyWlLk6GJQsqaUBKTNV-1">
          <mxGeometry x="-270" y="585" width="140" height="160" as="geometry" />
        </mxCell>
        <mxCell id="pRz6s-s0hqJRsFS_L3yZ-1" value="ID&lt;br&gt;Name&lt;br&gt;&lt;div&gt;Race&lt;/div&gt;&lt;div&gt;Gender&lt;/div&gt;&lt;div&gt;Age&lt;/div&gt;&lt;div&gt;Weight&lt;/div&gt;&lt;div&gt;Height&lt;/div&gt;&lt;div&gt;&lt;br&gt;&lt;/div&gt;" style="text;strokeColor=none;fillColor=none;align=left;verticalAlign=middle;spacingLeft=4;spacingRight=4;overflow=hidden;points=[[0,0.5],[1,0.5]];portConstraint=eastwest;rotatable=0;whiteSpace=wrap;html=1;" vertex="1" parent="pRz6s-s0hqJRsFS_L3yZ-0">
          <mxGeometry y="30" width="140" height="130" as="geometry" />
        </mxCell>
        <mxCell id="pRz6s-s0hqJRsFS_L3yZ-8" value="CHARACTER_STYLES" style="swimlane;fontStyle=0;childLayout=stackLayout;horizontal=1;startSize=30;horizontalStack=0;resizeParent=1;resizeParentMax=0;resizeLast=0;collapsible=1;marginBottom=0;whiteSpace=wrap;html=1;fillColor=#e51400;fontColor=#ffffff;strokeColor=#B20000;" vertex="1" parent="WIyWlLk6GJQsqaUBKTNV-1">
          <mxGeometry x="120" y="210" width="140" height="110" as="geometry" />
        </mxCell>
        <mxCell id="pRz6s-s0hqJRsFS_L3yZ-9" value="characterId&lt;br&gt;styleId&lt;br&gt;&lt;div&gt;used_experience&lt;br&gt;rank_level&lt;/div&gt;&lt;div&gt;&lt;br&gt;&lt;br&gt;&lt;div&gt;&lt;br&gt;&lt;/div&gt;&lt;/div&gt;" style="text;strokeColor=none;fillColor=none;align=left;verticalAlign=middle;spacingLeft=4;spacingRight=4;overflow=hidden;points=[[0,0.5],[1,0.5]];portConstraint=eastwest;rotatable=0;whiteSpace=wrap;html=1;" vertex="1" parent="pRz6s-s0hqJRsFS_L3yZ-8">
          <mxGeometry y="30" width="140" height="80" as="geometry" />
        </mxCell>
        <mxCell id="pRz6s-s0hqJRsFS_L3yZ-11" style="edgeStyle=orthogonalEdgeStyle;rounded=0;orthogonalLoop=1;jettySize=auto;html=1;startArrow=diamond;startFill=1;endArrow=none;endFill=0;strokeWidth=3;" edge="1" parent="WIyWlLk6GJQsqaUBKTNV-1" source="yRHTukWS5kPvDP0bp7k_-48" target="yRHTukWS5kPvDP0bp7k_-45">
          <mxGeometry relative="1" as="geometry">
            <Array as="points">
              <mxPoint y="320" />
              <mxPoint y="320" />
            </Array>
          </mxGeometry>
        </mxCell>
        <mxCell id="pRz6s-s0hqJRsFS_L3yZ-13" value="RANK" style="swimlane;fontStyle=0;childLayout=stackLayout;horizontal=1;startSize=30;horizontalStack=0;resizeParent=1;resizeParentMax=0;resizeLast=0;collapsible=1;marginBottom=0;whiteSpace=wrap;html=1;" vertex="1" parent="WIyWlLk6GJQsqaUBKTNV-1">
          <mxGeometry x="-260" y="345" width="140" height="160" as="geometry" />
        </mxCell>
        <mxCell id="pRz6s-s0hqJRsFS_L3yZ-14" value="id&lt;br&gt;level&lt;br&gt;required_experience&lt;br&gt;bonus_descriptions&lt;div&gt;&lt;br/&gt;&lt;/div&gt;" style="text;strokeColor=none;fillColor=none;align=left;verticalAlign=middle;spacingLeft=4;spacingRight=4;overflow=hidden;points=[[0,0.5],[1,0.5]];portConstraint=eastwest;rotatable=0;whiteSpace=wrap;html=1;" vertex="1" parent="pRz6s-s0hqJRsFS_L3yZ-13">
          <mxGeometry y="30" width="140" height="130" as="geometry" />
        </mxCell>
        <mxCell id="pRz6s-s0hqJRsFS_L3yZ-15" style="edgeStyle=orthogonalEdgeStyle;rounded=0;orthogonalLoop=1;jettySize=auto;html=1;entryX=1;entryY=0.5;entryDx=0;entryDy=0;endArrow=none;endFill=0;" edge="1" parent="WIyWlLk6GJQsqaUBKTNV-1" source="yRHTukWS5kPvDP0bp7k_-2" target="pRz6s-s0hqJRsFS_L3yZ-9">
          <mxGeometry relative="1" as="geometry" />
        </mxCell>
        <mxCell id="pRz6s-s0hqJRsFS_L3yZ-16" style="edgeStyle=orthogonalEdgeStyle;rounded=0;orthogonalLoop=1;jettySize=auto;html=1;entryX=0;entryY=0.5;entryDx=0;entryDy=0;endArrow=diamond;endFill=1;strokeWidth=3;" edge="1" parent="WIyWlLk6GJQsqaUBKTNV-1" source="pRz6s-s0hqJRsFS_L3yZ-13" target="yRHTukWS5kPvDP0bp7k_-46">
          <mxGeometry relative="1" as="geometry">
            <Array as="points">
              <mxPoint x="-110" y="440" />
              <mxPoint x="-110" y="440" />
            </Array>
          </mxGeometry>
        </mxCell>
        <mxCell id="pRz6s-s0hqJRsFS_L3yZ-19" style="edgeStyle=orthogonalEdgeStyle;rounded=0;orthogonalLoop=1;jettySize=auto;html=1;entryX=0.357;entryY=1;entryDx=0;entryDy=0;entryPerimeter=0;" edge="1" parent="WIyWlLk6GJQsqaUBKTNV-1" source="yRHTukWS5kPvDP0bp7k_-1" target="yRHTukWS5kPvDP0bp7k_-34">
          <mxGeometry relative="1" as="geometry" />
        </mxCell>
        <mxCell id="pRz6s-s0hqJRsFS_L3yZ-20" style="edgeStyle=orthogonalEdgeStyle;rounded=0;orthogonalLoop=1;jettySize=auto;html=1;entryX=0;entryY=0.5;entryDx=0;entryDy=0;" edge="1" parent="WIyWlLk6GJQsqaUBKTNV-1" source="yRHTukWS5kPvDP0bp7k_-34" target="bwXpTgGX0ksgG3eH8Lzq-4">
          <mxGeometry relative="1" as="geometry" />
        </mxCell>
        <mxCell id="pRz6s-s0hqJRsFS_L3yZ-22" style="edgeStyle=orthogonalEdgeStyle;rounded=0;orthogonalLoop=1;jettySize=auto;html=1;entryX=0.502;entryY=0.992;entryDx=0;entryDy=0;entryPerimeter=0;endArrow=diamond;endFill=1;strokeWidth=3;" edge="1" parent="WIyWlLk6GJQsqaUBKTNV-1" source="pRz6s-s0hqJRsFS_L3yZ-0" target="yRHTukWS5kPvDP0bp7k_-46">
          <mxGeometry relative="1" as="geometry" />
        </mxCell>
        <mxCell id="pRz6s-s0hqJRsFS_L3yZ-23" style="edgeStyle=orthogonalEdgeStyle;rounded=0;orthogonalLoop=1;jettySize=auto;html=1;" edge="1" parent="WIyWlLk6GJQsqaUBKTNV-1" source="yRHTukWS5kPvDP0bp7k_-9" target="yRHTukWS5kPvDP0bp7k_-5">
          <mxGeometry relative="1" as="geometry" />
        </mxCell>
        <mxCell id="pRz6s-s0hqJRsFS_L3yZ-24" style="edgeStyle=orthogonalEdgeStyle;rounded=0;orthogonalLoop=1;jettySize=auto;html=1;" edge="1" parent="WIyWlLk6GJQsqaUBKTNV-1" source="yRHTukWS5kPvDP0bp7k_-2" target="yRHTukWS5kPvDP0bp7k_-25">
          <mxGeometry relative="1" as="geometry">
            <Array as="points">
              <mxPoint x="760" y="405" />
              <mxPoint x="760" y="405" />
            </Array>
          </mxGeometry>
        </mxCell>
        <mxCell id="pRz6s-s0hqJRsFS_L3yZ-25" style="edgeStyle=orthogonalEdgeStyle;rounded=0;orthogonalLoop=1;jettySize=auto;html=1;entryX=0.5;entryY=0;entryDx=0;entryDy=0;" edge="1" parent="WIyWlLk6GJQsqaUBKTNV-1" source="yRHTukWS5kPvDP0bp7k_-2" target="yRHTukWS5kPvDP0bp7k_-8">
          <mxGeometry relative="1" as="geometry" />
        </mxCell>
        <mxCell id="pRz6s-s0hqJRsFS_L3yZ-26" style="edgeStyle=orthogonalEdgeStyle;rounded=0;orthogonalLoop=1;jettySize=auto;html=1;" edge="1" parent="WIyWlLk6GJQsqaUBKTNV-1" source="yRHTukWS5kPvDP0bp7k_-40" target="CEfp5S79hrcH4w41YSzi-12">
          <mxGeometry relative="1" as="geometry">
            <Array as="points">
              <mxPoint x="1320" y="760" />
            </Array>
          </mxGeometry>
        </mxCell>
        <mxCell id="pRz6s-s0hqJRsFS_L3yZ-27" style="edgeStyle=orthogonalEdgeStyle;rounded=0;orthogonalLoop=1;jettySize=auto;html=1;" edge="1" parent="WIyWlLk6GJQsqaUBKTNV-1" source="CEfp5S79hrcH4w41YSzi-12" target="yRHTukWS5kPvDP0bp7k_-6">
          <mxGeometry relative="1" as="geometry">
            <Array as="points">
              <mxPoint x="910" y="895" />
              <mxPoint x="910" y="895" />
            </Array>
          </mxGeometry>
        </mxCell>
        <mxCell id="pRz6s-s0hqJRsFS_L3yZ-28" value="RACE" style="swimlane;fontStyle=0;childLayout=stackLayout;horizontal=1;startSize=30;horizontalStack=0;resizeParent=1;resizeParentMax=0;resizeLast=0;collapsible=1;marginBottom=0;whiteSpace=wrap;html=1;" vertex="1" parent="WIyWlLk6GJQsqaUBKTNV-1">
          <mxGeometry x="390" y="560" width="140" height="160" as="geometry" />
        </mxCell>
        <mxCell id="pRz6s-s0hqJRsFS_L3yZ-29" value="id&lt;br&gt;name" style="text;strokeColor=none;fillColor=none;align=left;verticalAlign=middle;spacingLeft=4;spacingRight=4;overflow=hidden;points=[[0,0.5],[1,0.5]];portConstraint=eastwest;rotatable=0;whiteSpace=wrap;html=1;" vertex="1" parent="pRz6s-s0hqJRsFS_L3yZ-28">
          <mxGeometry y="30" width="140" height="130" as="geometry" />
        </mxCell>
        <mxCell id="pRz6s-s0hqJRsFS_L3yZ-30" style="edgeStyle=orthogonalEdgeStyle;rounded=0;orthogonalLoop=1;jettySize=auto;html=1;endArrow=none;endFill=0;" edge="1" parent="WIyWlLk6GJQsqaUBKTNV-1" source="yRHTukWS5kPvDP0bp7k_-2" target="pRz6s-s0hqJRsFS_L3yZ-28">
          <mxGeometry relative="1" as="geometry">
            <Array as="points">
              <mxPoint x="630" y="685" />
            </Array>
          </mxGeometry>
        </mxCell>
        <mxCell id="pRz6s-s0hqJRsFS_L3yZ-31" value="RACE_STAT_MULTIPLIER" style="swimlane;fontStyle=0;childLayout=stackLayout;horizontal=1;startSize=30;horizontalStack=0;resizeParent=1;resizeParentMax=0;resizeLast=0;collapsible=1;marginBottom=0;whiteSpace=wrap;html=1;fillColor=#e51400;fontColor=#ffffff;strokeColor=#B20000;" vertex="1" parent="WIyWlLk6GJQsqaUBKTNV-1">
          <mxGeometry x="380" y="800" width="160" height="160" as="geometry" />
        </mxCell>
        <mxCell id="pRz6s-s0hqJRsFS_L3yZ-32" value="stat_id&lt;br&gt;race_id&lt;br&gt;req_exp_multiplier" style="text;strokeColor=none;fillColor=none;align=left;verticalAlign=middle;spacingLeft=4;spacingRight=4;overflow=hidden;points=[[0,0.5],[1,0.5]];portConstraint=eastwest;rotatable=0;whiteSpace=wrap;html=1;" vertex="1" parent="pRz6s-s0hqJRsFS_L3yZ-31">
          <mxGeometry y="30" width="160" height="130" as="geometry" />
        </mxCell>
        <mxCell id="pRz6s-s0hqJRsFS_L3yZ-33" style="edgeStyle=orthogonalEdgeStyle;rounded=0;orthogonalLoop=1;jettySize=auto;html=1;entryX=0.5;entryY=0;entryDx=0;entryDy=0;" edge="1" parent="WIyWlLk6GJQsqaUBKTNV-1" source="pRz6s-s0hqJRsFS_L3yZ-29" target="pRz6s-s0hqJRsFS_L3yZ-31">
          <mxGeometry relative="1" as="geometry">
            <Array as="points">
              <mxPoint x="460" y="770" />
              <mxPoint x="460" y="770" />
            </Array>
          </mxGeometry>
        </mxCell>
        <mxCell id="pRz6s-s0hqJRsFS_L3yZ-34" style="edgeStyle=orthogonalEdgeStyle;rounded=0;orthogonalLoop=1;jettySize=auto;html=1;entryX=1;entryY=0.5;entryDx=0;entryDy=0;" edge="1" parent="WIyWlLk6GJQsqaUBKTNV-1" source="yRHTukWS5kPvDP0bp7k_-6" target="pRz6s-s0hqJRsFS_L3yZ-32">
          <mxGeometry relative="1" as="geometry" />
        </mxCell>
        <mxCell id="pRz6s-s0hqJRsFS_L3yZ-35" style="edgeStyle=orthogonalEdgeStyle;rounded=0;orthogonalLoop=1;jettySize=auto;html=1;" edge="1" parent="WIyWlLk6GJQsqaUBKTNV-1" source="yRHTukWS5kPvDP0bp7k_-46" target="pRz6s-s0hqJRsFS_L3yZ-9">
          <mxGeometry relative="1" as="geometry" />
        </mxCell>
        <mxCell id="pRz6s-s0hqJRsFS_L3yZ-41" style="edgeStyle=orthogonalEdgeStyle;rounded=0;orthogonalLoop=1;jettySize=auto;html=1;" edge="1" parent="WIyWlLk6GJQsqaUBKTNV-1" source="pRz6s-s0hqJRsFS_L3yZ-36" target="yRHTukWS5kPvDP0bp7k_-53">
          <mxGeometry relative="1" as="geometry" />
        </mxCell>
        <mxCell id="pRz6s-s0hqJRsFS_L3yZ-36" value="CHARACTER_SKILLS" style="swimlane;fontStyle=0;childLayout=stackLayout;horizontal=1;startSize=30;horizontalStack=0;resizeParent=1;resizeParentMax=0;resizeLast=0;collapsible=1;marginBottom=0;whiteSpace=wrap;html=1;fillColor=#e51400;fontColor=#ffffff;strokeColor=#B20000;" vertex="1" parent="WIyWlLk6GJQsqaUBKTNV-1">
          <mxGeometry x="140" y="360" width="140" height="160" as="geometry" />
        </mxCell>
        <mxCell id="pRz6s-s0hqJRsFS_L3yZ-37" value="character_id&lt;br&gt;skill_id&lt;div&gt;&lt;br/&gt;&lt;/div&gt;" style="text;strokeColor=none;fillColor=none;align=left;verticalAlign=middle;spacingLeft=4;spacingRight=4;overflow=hidden;points=[[0,0.5],[1,0.5]];portConstraint=eastwest;rotatable=0;whiteSpace=wrap;html=1;" vertex="1" parent="pRz6s-s0hqJRsFS_L3yZ-36">
          <mxGeometry y="30" width="140" height="130" as="geometry" />
        </mxCell>
        <mxCell id="pRz6s-s0hqJRsFS_L3yZ-40" style="edgeStyle=orthogonalEdgeStyle;rounded=0;orthogonalLoop=1;jettySize=auto;html=1;entryX=0.5;entryY=0;entryDx=0;entryDy=0;" edge="1" parent="WIyWlLk6GJQsqaUBKTNV-1" source="yRHTukWS5kPvDP0bp7k_-22" target="yRHTukWS5kPvDP0bp7k_-26">
          <mxGeometry relative="1" as="geometry">
            <Array as="points">
              <mxPoint x="420" y="-80" />
              <mxPoint x="420" y="-80" />
            </Array>
          </mxGeometry>
        </mxCell>
        <mxCell id="pRz6s-s0hqJRsFS_L3yZ-42" style="edgeStyle=orthogonalEdgeStyle;rounded=0;orthogonalLoop=1;jettySize=auto;html=1;entryX=0.571;entryY=0.996;entryDx=0;entryDy=0;entryPerimeter=0;endArrow=diamond;endFill=1;strokeWidth=3;exitX=-0.023;exitY=0.262;exitDx=0;exitDy=0;exitPerimeter=0;" edge="1" parent="WIyWlLk6GJQsqaUBKTNV-1" source="yRHTukWS5kPvDP0bp7k_-54" target="yRHTukWS5kPvDP0bp7k_-46">
          <mxGeometry relative="1" as="geometry">
            <mxPoint y="611" as="sourcePoint" />
            <mxPoint x="200" y="530" as="targetPoint" />
          </mxGeometry>
        </mxCell>
        <mxCell id="pRz6s-s0hqJRsFS_L3yZ-43" style="edgeStyle=orthogonalEdgeStyle;rounded=0;orthogonalLoop=1;jettySize=auto;html=1;endArrow=diamond;endFill=1;strokeWidth=3;entryX=1;entryY=0.5;entryDx=0;entryDy=0;exitX=0;exitY=0.5;exitDx=0;exitDy=0;" edge="1" parent="WIyWlLk6GJQsqaUBKTNV-1" source="yRHTukWS5kPvDP0bp7k_-54" target="pRz6s-s0hqJRsFS_L3yZ-1">
          <mxGeometry relative="1" as="geometry">
            <mxPoint x="149" y="800" as="sourcePoint" />
            <mxPoint x="-31" y="765" as="targetPoint" />
            <Array as="points">
              <mxPoint x="130" y="680" />
            </Array>
          </mxGeometry>
        </mxCell>
        <mxCell id="pRz6s-s0hqJRsFS_L3yZ-44" style="edgeStyle=orthogonalEdgeStyle;rounded=0;orthogonalLoop=1;jettySize=auto;html=1;endArrow=diamond;endFill=1;strokeWidth=3;entryX=0;entryY=0.5;entryDx=0;entryDy=0;exitX=0.993;exitY=0.417;exitDx=0;exitDy=0;exitPerimeter=0;" edge="1" parent="WIyWlLk6GJQsqaUBKTNV-1" source="yRHTukWS5kPvDP0bp7k_-54" target="pRz6s-s0hqJRsFS_L3yZ-29">
          <mxGeometry relative="1" as="geometry">
            <mxPoint x="330" y="865" as="sourcePoint" />
            <mxPoint x="-40" y="865" as="targetPoint" />
            <Array as="points">
              <mxPoint x="290" y="652" />
              <mxPoint x="290" y="655" />
            </Array>
          </mxGeometry>
        </mxCell>
      </root>
    </mxGraphModel>
  </diagram>
</mxfile>
